<svg aria-hidden="true" style="position: absolute; width: 0; height: 0; overflow: hidden;" version="1.1" xmlns="http://www.w3.org/2000/svg" xmlns:xlink="http://www.w3.org/1999/xlink">
<defs>
<symbol id="icon-close" viewBox="0 0 32 32">
<path fill="none" stroke="#fff" style="stroke: var(--color1, #fff)" stroke-linejoin="miter" stroke-linecap="butt" stroke-miterlimit="4" stroke-width="2" d="M2.519 2l26.963 28"></path>
<path fill="none" stroke="#fff" style="stroke: var(--color1, #fff)" stroke-linejoin="miter" stroke-linecap="butt" stroke-miterlimit="4" stroke-width="2" d="M2 29.481l28-26.963"></path>
</symbol>
<symbol id="icon-burger" viewBox="0 0 46 32">
<path fill="none" stroke="#d41443" style="stroke: var(--color2, #d41443)" stroke-linejoin="miter" stroke-linecap="butt" stroke-miterlimit="4" stroke-width="2.2857" d="M0 2.286h45.714"></path>
<path fill="none" stroke="#d41443" style="stroke: var(--color2, #d41443)" stroke-linejoin="miter" stroke-linecap="butt" stroke-miterlimit="4" stroke-width="2.2857" d="M0 16h45.714"></path>
<path fill="none" stroke="#d41443" style="stroke: var(--color2, #d41443)" stroke-linejoin="miter" stroke-linecap="butt" stroke-miterlimit="4" stroke-width="2.2857" d="M0 29.714h45.714"></path>
</symbol>
<symbol id="icon-elipse" viewBox="0 0 32 32">
<path fill="#c7133e" style="fill: var(--color3, #c7133e)" d="M32 16c0 8.837-7.163 16-16 16s-16-7.163-16-16c0-8.837 7.163-16 16-16s16 7.163 16 16z"></path>
</symbol>
<symbol id="icon-telegram" viewBox="0 0 32 32">
<path fill="#fff" style="fill: var(--color1, #fff)" d="M12.705 18.303l-0.308 4.043c0.441 0 0.631-0.177 0.86-0.389l2.066-1.843 4.281 2.926c0.785 0.408 1.338 0.193 1.55-0.674l2.811-12.289c0.249-1.083-0.42-1.507-1.185-1.241l-16.516 5.902c-1.127 0.408-1.11 0.995-0.192 1.261l4.223 1.226 9.808-5.728c0.462-0.285 0.881-0.127 0.536 0.158l-7.934 6.649z"></path>
</symbol>
<symbol id="icon-github" viewBox="0 0 32 32">
<path fill="#fff" style="fill: var(--color1, #fff)" d="M16 6.588c-5.169 0-9.412 4.242-9.412 9.412 0 4.411 3.095 8.419 7.206 9.412v-3.114c-0.407 0.089-0.782 0.092-1.197-0.030-0.556-0.164-1.008-0.535-1.344-1.1-0.214-0.361-0.593-0.752-0.988-0.723l-0.097-1.099c0.855-0.073 1.595 0.521 2.034 1.258 0.195 0.328 0.419 0.52 0.708 0.605 0.278 0.082 0.577 0.043 0.926-0.081 0.088-0.698 0.407-0.959 0.649-1.326v-0.001c-2.451-0.366-3.428-1.666-3.816-2.693-0.514-1.363-0.238-3.066 0.671-4.142 0.018-0.021 0.050-0.076 0.037-0.114-0.417-1.258 0.091-2.3 0.11-2.41 0.481 0.142 0.559-0.143 2.088 0.786l0.264 0.159c0.111 0.066 0.076 0.028 0.186 0.020 0.639-0.174 1.312-0.269 1.975-0.278 0.668 0.009 1.337 0.104 2.002 0.285l0.086 0.009c-0.008-0.001 0.023-0.005 0.075-0.036 1.911-1.157 1.842-0.779 2.354-0.946 0.018 0.111 0.519 1.169 0.107 2.411-0.056 0.171 1.657 1.739 0.708 4.256-0.388 1.027-1.365 2.328-3.816 2.693v0.001c0.314 0.479 0.692 0.734 0.69 1.722v3.887c4.111-0.993 7.206-5 7.206-9.412 0-5.169-4.242-9.412-9.412-9.412v0z"></path>
</symbol>
<symbol id="icon-facebook" viewBox="0 0 32 32">
<path fill="#fff" style="fill: var(--color1, #fff)" d="M20.282 15.982h-2.531v9.327h-3.835v-9.327h-1.824v-3.278h1.824v-2.121c0-1.517 0.716-3.892 3.869-3.892l2.841 0.012v3.182h-2.061c-0.338 0-0.813 0.17-0.813 0.893v1.929h2.866l-0.335 3.275z"></path>
</symbol>
<symbol id="icon-btn-arrow" viewBox="0 0 32 32">
<path fill="none" stroke="#d41443" style="stroke: var(--color2, #d41443)" stroke-linejoin="round" stroke-linecap="round" stroke-miterlimit="4" stroke-width="6.4" d="M8.372 3.2l14.169 12.8-14.169 12.8"></path>
</symbol>
<symbol id="icon-btn-arrow-loc" viewBox="0 0 32 32">
<path fill="none" stroke="#d41443" style="stroke: var(--color2, #ffffff)" stroke-linejoin="round" stroke-linecap="round" stroke-miterlimit="4" stroke-width="6.4" d="M8.372 3.2l14.169 12.8-14.169 12.8"></path>
</symbol>
<symbol id="icon-home-customers_reviews" width="13" height="12" viewBox="0 0 13 12" fill="none">
<path d="M12.8449 5.85484C13.0696 5.60772 13.0479 5.22897 12.7964 5.00908L7.25687 0.161935C7.00543 -0.0579491 6.60231 -0.0533429 6.35616 0.172319L0.797761 5.26751C0.551613 5.49318 0.539532 5.87145 0.771013 6.11206L0.91037 6.25719C1.14157 6.49781 1.51527 6.52649 1.74453 6.32107L2.15994 5.94907V11.3953C2.15994 11.7295 2.43069 12 2.7646 12H4.93127C5.26518 12 5.53594 11.7295 5.53594 11.3953V7.58515H8.29956V11.3953C8.29475 11.7292 8.53367 11.9998 8.86757 11.9998H11.1637C11.4976 11.9998 11.7684 11.7292 11.7684 11.3951V6.02575C11.7684 6.02575 11.8831 6.12628 12.0247 6.25069C12.166 6.37485 12.4627 6.2753 12.6874 6.02794L12.8449 5.85484Z" fill="#D31342"/>
</symbol>
</defs>
</svg>
